# xmcd
#
# Track frame offsets:
#	150
#	15928
#	31864
#	47093
#	59846
#	72901
#	91447
#	108227
#	123413
#	137283
#	154380
#	172974
#	187937
#	201364
#	217658
#	234462
#	253637
#	270990
#
# Disc length: 3830 seconds
#
# Revision: 1
# Processed by: cddbd v1.5.2PL0 Copyright (c) Steve Scherf et al.
# Submitted via: audiograbber 1.83.01
#
DISCID=ed0ef412
DTITLE=Various Artist - Songs For My Ute Volume 5 [Disc 1]
DYEAR=2007
DGENRE=Rock
TTITLE0=Grinspoon - Hard Act To Follow
TTITLE1=Gretchen Wilson - All Jacked Up
TTITLE2=Dallas Crane - Curiosity
TTITLE3=Adam Brand - Party Till The Money's All Gone
TTITLE4=The Living End - Long Live The Weekend
TTITLE5=The Road Hammers - I'm A Road Hammer
TTITLE6=You Am I - Gunslingers
TTITLE7=Big And Rich - Save A Horse
TTITLE8=Steve Forde and The Flange - Goin' and Blowin'
TTITLE9=silverchair - Freak
TTITLE10=Kenny Chesney - She Thinks My Tractor's Sexy
TTITLE11=Gyroscope - Fast Girl
TTITLE12=Adam Harvey - Life Don't Have To Mean Nothin' At All
TTITLE13=After The Fall - Concrete Boots
TTITLE14=Brad Paisley - Celebrity
TTITLE15=Toby Keith - Pick 'Em Up And Lay 'Em Down
TTITLE16=Alan Jackson - It's Five O'Clock Somewhere
TTITLE17=Blind Melon - No Rain
EXTD=
EXTT0=
EXTT1=
EXTT2=
EXTT3=
EXTT4=
EXTT5=
EXTT6=
EXTT7=
EXTT8=
EXTT9=
EXTT10=
EXTT11=
EXTT12=
EXTT13=
EXTT14=
EXTT15=
EXTT16=
EXTT17=
PLAYORDER=
